<svg width="40" height="40" viewBox="0 0 40 40" fill="none" xmlns="http://www.w3.org/2000/svg">
<path d="M11.615 12.0887C11.7312 11.9752 11.8691 11.885 12.021 11.8236C12.1728 11.7621 12.3356 11.7304 12.5 11.7304C12.6645 11.7304 12.8273 11.7621 12.9791 11.8236C13.131 11.885 13.2689 11.9752 13.385 12.0887L20 18.5451L26.615 12.0887C26.7313 11.9753 26.8692 11.8854 27.0211 11.824C27.1729 11.7627 27.3357 11.7311 27.5 11.7311C27.6644 11.7311 27.8271 11.7627 27.979 11.824C28.1308 11.8854 28.2688 11.9753 28.385 12.0887C28.5013 12.2021 28.5934 12.3367 28.6563 12.4849C28.7192 12.633 28.7516 12.7918 28.7516 12.9522C28.7516 13.1125 28.7192 13.2713 28.6563 13.4195C28.5934 13.5676 28.5013 13.7022 28.385 13.8156L21.7675 20.2696L28.385 26.7235C28.5013 26.8369 28.5934 26.9715 28.6563 27.1197C28.7192 27.2678 28.7516 27.4266 28.7516 27.587C28.7516 27.7473 28.7192 27.9061 28.6563 28.0543C28.5934 28.2024 28.5013 28.3371 28.385 28.4504C28.2688 28.5638 28.1308 28.6538 27.979 28.7151C27.8271 28.7765 27.6644 28.8081 27.5 28.8081C27.3357 28.8081 27.1729 28.7765 27.0211 28.7151C26.8692 28.6538 26.7313 28.5638 26.615 28.4504L20 21.9941L13.385 28.4504C13.2688 28.5638 13.1308 28.6538 12.979 28.7151C12.8271 28.7765 12.6644 28.8081 12.5 28.8081C12.3357 28.8081 12.1729 28.7765 12.0211 28.7151C11.8692 28.6538 11.7313 28.5638 11.615 28.4504C11.4988 28.3371 11.4066 28.2024 11.3437 28.0543C11.2808 27.9061 11.2485 27.7473 11.2485 27.587C11.2485 27.4266 11.2808 27.2678 11.3437 27.1197C11.4066 26.9715 11.4988 26.8369 11.615 26.7235L18.2325 20.2696L11.615 13.8156C11.4986 13.7024 11.4063 13.5678 11.3433 13.4196C11.2802 13.2714 11.2478 13.1126 11.2478 12.9522C11.2478 12.7918 11.2802 12.6329 11.3433 12.4848C11.4063 12.3366 11.4986 12.202 11.615 12.0887Z" fill="#248AD3"/>
</svg>
