<svg width="560" height="420" viewBox="0 0 560 420" fill="none" xmlns="http://www.w3.org/2000/svg">
<g clip-path="url(#clip0)">
<path d="M31.7106 97.1477L17.1831 111.664L30.7367 125.208L45.2642 110.691L31.7106 97.1477Z" fill="#E1E6FB"/>
<path d="M47.691 114.432L33.1635 128.948L46.7171 142.492L61.2446 127.975L47.691 114.432Z" fill="#E1E6FB"/>
<path d="M51.1375 80.0214L36.61 94.538L50.1636 108.081L64.6911 93.5648L51.1375 80.0214Z" fill="#E1E6FB"/>
<path d="M510.325 327.682L495.798 342.199L509.351 355.742L523.879 341.226L510.325 327.682Z" fill="#E1E6FB"/>
<path d="M526.314 344.963L511.786 359.48L525.34 373.023L539.867 358.506L526.314 344.963Z" fill="#E1E6FB"/>
<path d="M509.094 362.168L494.567 376.684L508.12 390.228L522.648 375.711L509.094 362.168Z" fill="#E1E6FB"/>
<path d="M283.271 31.1961H143.242V103.452H283.271V31.1961Z" fill="#BAC5F4"/>
<path d="M112.253 301.868H59.4548V418.853H112.253V301.868Z" fill="#E1E6FB"/>
<path d="M84.7059 312.19C84.7059 312.19 38.7948 237.641 36.4993 218.143C34.2037 198.646 31.9082 191.764 31.9082 191.764C31.9082 191.764 45.6815 189.47 50.2726 199.792C54.8637 210.115 68.637 197.499 73.2281 225.025C73.2281 225.025 74.3759 238.788 84.7059 234.2C95.0359 229.612 84.7059 312.19 84.7059 312.19Z" fill="#E1E6FB"/>
<path d="M90.4448 323.659C90.4448 323.659 57.6184 262.873 46.8293 238.788C38.7948 220.896 31.9082 191.764 31.9082 191.764C31.9082 191.764 18.0201 196.81 19.2826 207.821C20.4304 218.143 10.1004 221.584 12.396 234.2C14.9211 247.848 34.6628 250.371 22.726 262.873C15.495 270.442 20.8895 283.288 26.1693 291.546C29.4979 296.821 46.1406 301.638 42.2382 299.574C33.2855 294.986 90.4448 323.659 90.4448 323.659Z" fill="#BAC5F4"/>
<path d="M69.6523 272.764C70.804 272.234 66.1501 259.677 59.2576 244.716C52.3651 229.756 45.844 218.058 44.6923 218.587C43.5406 219.117 48.1945 231.675 55.087 246.635C61.9795 261.595 68.5006 273.294 69.6523 272.764Z" fill="#BAC5F4"/>
<path d="M100.316 360.934C100.316 360.934 30.4161 308.176 21.2339 290.857C12.0517 273.539 7.34577 267.919 7.34577 267.919C7.34577 267.919 19.3974 260.808 27.4319 268.722C35.4663 276.636 43.7303 259.891 57.9627 283.861C57.9627 283.861 59.5696 300.721 69.8996 297.28C80.4591 293.725 100.316 360.934 100.316 360.934Z" fill="#E1E6FB"/>
<path d="M109.842 369.536C109.842 369.536 57.1593 324.806 38.3357 306.341C24.3329 292.578 7.34577 267.919 7.34577 267.919C7.34577 267.919 -3.67288 277.668 1.37733 287.417C6.19799 296.592 -2.18077 303.588 4.59111 314.484C11.8221 326.297 31.2195 321.48 24.6772 337.422C20.66 347.056 30.4161 357.149 38.3357 362.884C43.3859 366.554 60.6026 364.948 56.241 364.489C46.1406 363.572 109.842 369.536 109.842 369.536Z" fill="#F8F8FF"/>
<path d="M64.9802 343.556C65.8603 342.644 56.9567 332.636 45.0934 321.204C33.2301 309.771 22.8995 301.242 22.0194 302.154C21.1393 303.066 30.0429 313.073 41.9062 324.506C53.7695 335.939 64.1001 344.468 64.9802 343.556Z" fill="#E1E6FB"/>
<path d="M464.62 220.552C464.62 220.552 519.139 131.895 522.697 108.269C526.255 84.6423 529.125 76.3845 529.125 76.3845C529.125 76.3845 513.974 72.9437 508.35 85.3304C502.726 97.7171 488.149 81.775 481.722 115.036C481.722 115.036 479.771 131.78 468.522 125.702C457.274 119.623 464.62 220.552 464.62 220.552Z" fill="#E1E6FB"/>
<path d="M457.733 234.2C457.733 234.2 497.102 161.715 510.301 132.927C520.057 111.595 529.125 76.3845 529.125 76.3845C529.125 76.3845 544.275 83.1513 542.324 96.4555C540.488 108.957 551.851 113.659 548.637 128.913C545.194 145.429 523.156 147.608 535.782 163.321C543.357 172.84 536.815 188.323 530.502 198.072C526.485 204.265 507.891 209.427 512.253 207.133C522.353 201.972 457.733 234.2 457.733 234.2Z" fill="#BAC5F4"/>
<path d="M496.184 139.579C487.805 157.471 482.066 172.496 483.329 173.184C484.591 173.872 492.396 159.995 500.775 142.103C509.154 124.211 514.892 109.186 513.63 108.383C512.367 107.581 504.562 121.688 496.184 139.579Z" fill="#BAC5F4"/>
<path d="M444.878 279.159C444.878 279.159 524.993 218.143 536.011 197.384C547.03 176.625 552.539 170.087 552.539 170.087C552.539 170.087 539.57 160.912 530.273 170.202C520.976 179.492 512.712 158.733 495.61 187.291C495.61 187.291 493.085 207.706 481.722 203.004C470.129 198.301 444.878 279.159 444.878 279.159Z" fill="#F8F8FF"/>
<path d="M433.974 289.252C433.974 289.252 494.577 237.182 516.385 215.505C532.568 199.448 552.654 170.202 552.654 170.202C552.654 170.202 564.362 182.589 558.278 194.287C552.425 205.298 561.377 214.129 553.458 227.089C544.849 241.081 523.616 234.429 530.158 254.156C534.06 266.084 522.812 277.897 513.745 284.549C508.006 288.793 488.953 286.04 493.888 285.696C504.792 284.779 433.974 289.252 433.974 289.252Z" fill="#E1E6FB"/>
<path d="M514.433 228.695C501.349 242.687 491.478 254.844 492.396 255.991C493.314 257.138 504.792 246.701 517.877 232.709C530.961 218.717 540.832 206.559 539.914 205.412C538.996 204.265 527.518 214.702 514.433 228.695Z" fill="white"/>
<path d="M209.813 301.868H121.435V418.853H209.813V301.868Z" fill="#BAC5F4"/>
<path d="M402.64 303.015H314.261V420H402.64V303.015Z" fill="#E1E6FB"/>
<path d="M348.694 31.1961H291.306V104.599H348.694V31.1961Z" fill="#E1E6FB"/>
<path d="M481.836 91.9825H81.2626V386.74H481.836V91.9825Z" fill="#BAC5F4"/>
<path d="M481.836 91.9825H91.5925V386.74H481.836V91.9825Z" fill="#F8F8FF"/>
<path d="M477.245 96.5702H95.0359V117.215H477.245V96.5702Z" fill="white"/>
<path d="M477.245 116.068H95.0359V382.152H477.245V116.068Z" fill="#E1E6FB"/>
<path d="M205.222 126.39H158.164V179.148H205.222V126.39Z" fill="#BAC5F4"/>
<path d="M258.02 126.39H210.961V179.148H258.02V126.39Z" fill="#BAC5F4"/>
<path d="M309.67 126.39H262.611V179.148H309.67V126.39Z" fill="#BAC5F4"/>
<path d="M362.468 126.39H315.409V179.148H362.468V126.39Z" fill="white"/>
<path d="M414.118 126.39H367.059V179.148H414.118V126.39Z" fill="white"/>
<path d="M466.915 126.39H419.857V179.148H466.915V126.39Z" fill="white"/>
<path d="M205.222 187.176H158.164V239.934H205.222V187.176Z" fill="white"/>
<path d="M258.02 187.176H210.961V239.934H258.02V187.176Z" fill="white"/>
<path d="M309.67 187.176H262.611V239.934H309.67V187.176Z" fill="#F8F8FF"/>
<path d="M362.468 187.176H315.409V239.934H362.468V187.176Z" fill="white"/>
<path d="M414.118 187.176H367.059V239.934H414.118V187.176Z" fill="white"/>
<path d="M466.915 187.176H419.857V239.934H466.915V187.176Z" fill="white"/>
<path d="M205.222 245.669H158.164V298.427H205.222V245.669Z" fill="white"/>
<path d="M258.02 245.669H210.961V298.427H258.02V245.669Z" fill="white"/>
<path d="M309.67 245.669H262.611V298.427H309.67V245.669Z" fill="#F8F8FF"/>
<path d="M362.468 245.669H315.409V298.427H362.468V245.669Z" fill="white"/>
<path d="M414.118 245.669H367.059V298.427H414.118V245.669Z" fill="#F8F8FF"/>
<path d="M466.915 245.669H419.857V298.427H466.915V245.669Z" fill="white"/>
<path d="M206.37 305.309H159.311V358.067H206.37V305.309Z" fill="#F8F8FF"/>
<path d="M259.168 305.309H212.109V358.067H259.168V305.309Z" fill="#F8F8FF"/>
<path d="M310.818 305.309H263.759V358.067H310.818V305.309Z" fill="white"/>
<path d="M363.616 305.309H316.557V358.067H363.616V305.309Z" fill="white"/>
<path d="M415.265 305.309H368.207V358.067H415.265V305.309Z" fill="#BAC5F4"/>
<path d="M468.063 305.309H421.004V358.067H468.063V305.309Z" fill="white"/>
<path d="M105.94 111.48C108.158 111.48 109.957 109.683 109.957 107.466C109.957 105.249 108.158 103.452 105.94 103.452C103.721 103.452 101.923 105.249 101.923 107.466C101.923 109.683 103.721 111.48 105.94 111.48Z" fill="#BAC5F4"/>
<path d="M118.565 111.48C120.784 111.48 122.583 109.683 122.583 107.466C122.583 105.249 120.784 103.452 118.565 103.452C116.347 103.452 114.548 105.249 114.548 107.466C114.548 109.683 116.347 111.48 118.565 111.48Z" fill="#BAC5F4"/>
<path d="M131.191 111.48C133.409 111.48 135.208 109.683 135.208 107.466C135.208 105.249 133.409 103.452 131.191 103.452C128.972 103.452 127.174 105.249 127.174 107.466C127.174 109.683 128.972 111.48 131.191 111.48Z" fill="#BAC5F4"/>
<path d="M111.679 186.029H143.816C146.686 186.029 148.981 188.323 148.981 191.191C148.981 194.058 146.686 196.352 143.816 196.352H111.679C108.809 196.352 106.514 194.058 106.514 191.191C106.514 188.438 108.809 186.029 111.679 186.029Z" fill="white"/>
<path d="M111.679 245.669H143.816C146.686 245.669 148.981 247.963 148.981 250.83C148.981 253.697 146.686 255.991 143.816 255.991H111.679C108.809 255.991 106.514 253.697 106.514 250.83C106.514 248.078 108.809 245.669 111.679 245.669Z" fill="white"/>
<path d="M111.679 305.309H143.816C146.686 305.309 148.981 307.602 148.981 310.47C148.981 313.337 146.686 315.631 143.816 315.631H111.679C108.809 315.631 106.514 313.337 106.514 310.47C106.514 307.717 108.809 305.309 111.679 305.309Z" fill="white"/>
<path d="M166.772 190.617H185.136C187.317 190.617 189.154 192.452 189.154 194.631C189.154 196.81 187.317 198.646 185.136 198.646H166.772C164.591 198.646 162.755 196.81 162.755 194.631C162.755 192.452 164.591 190.617 166.772 190.617Z" fill="#BAC5F4"/>
<path d="M165.624 205.527H173.659C175.265 205.527 176.528 206.789 176.528 208.394C176.528 210 175.265 211.262 173.659 211.262H165.624C164.017 211.262 162.755 210 162.755 208.394C162.755 206.903 164.017 205.527 165.624 205.527Z" fill="#BAC5F4"/>
<path d="M220.143 190.617H238.508C240.459 190.617 241.951 192.108 241.951 194.058C241.951 196.008 240.459 197.499 238.508 197.499H220.143C218.192 197.499 216.7 196.008 216.7 194.058C216.7 192.223 218.192 190.617 220.143 190.617Z" fill="#BAC5F4"/>
<path d="M376.241 313.337H394.605C396.557 313.337 398.049 314.828 398.049 316.778C398.049 318.727 396.557 320.218 394.605 320.218H376.241C374.29 320.218 372.798 318.727 372.798 316.778C372.798 314.943 374.29 313.337 376.241 313.337Z" fill="white"/>
<path d="M427.891 251.404H446.255C448.207 251.404 449.699 252.895 449.699 254.844C449.699 256.794 448.207 258.285 446.255 258.285H427.891C425.94 258.285 424.448 256.794 424.448 254.844C424.448 253.009 425.94 251.404 427.891 251.404Z" fill="#F5F5FC"/>
<path d="M426.743 191.764H445.108C447.059 191.764 448.551 193.255 448.551 195.205C448.551 197.155 447.059 198.646 445.108 198.646H426.743C424.792 198.646 423.3 197.155 423.3 195.205C423.3 193.37 424.792 191.764 426.743 191.764Z" fill="#F5F5FC"/>
<path d="M375.093 191.764H393.458C395.409 191.764 396.901 193.255 396.901 195.205C396.901 197.155 395.409 198.646 393.458 198.646H375.093C373.142 198.646 371.65 197.155 371.65 195.205C371.65 193.37 373.142 191.764 375.093 191.764Z" fill="#F5F5FC"/>
<path d="M221.291 211.262C223.827 211.262 225.882 209.208 225.882 206.674C225.882 204.14 223.827 202.086 221.291 202.086C218.756 202.086 216.7 204.14 216.7 206.674C216.7 209.208 218.756 211.262 221.291 211.262Z" fill="#BAC5F4"/>
<path d="M325.739 203.233C328.274 203.233 330.33 201.179 330.33 198.646C330.33 196.112 328.274 194.058 325.739 194.058C323.203 194.058 321.148 196.112 321.148 198.646C321.148 201.179 323.203 203.233 325.739 203.233Z" fill="#BAC5F4"/>
<path d="M341.808 203.233C344.343 203.233 346.399 201.179 346.399 198.646C346.399 196.112 344.343 194.058 341.808 194.058C339.272 194.058 337.217 196.112 337.217 198.646C337.217 201.179 339.272 203.233 341.808 203.233Z" fill="#BAC5F4"/>
<path d="M341.808 260.579C344.343 260.579 346.399 258.525 346.399 255.991C346.399 253.458 344.343 251.404 341.808 251.404C339.272 251.404 337.217 253.458 337.217 255.991C337.217 258.525 339.272 260.579 341.808 260.579Z" fill="#BAC5F4"/>
<path d="M325.739 260.579C328.274 260.579 330.33 258.525 330.33 255.991C330.33 253.458 328.274 251.404 325.739 251.404C323.203 251.404 321.148 253.458 321.148 255.991C321.148 258.525 323.203 260.579 325.739 260.579Z" fill="#BAC5F4"/>
<path d="M340.66 319.072C343.196 319.072 345.251 317.018 345.251 314.484C345.251 311.95 343.196 309.896 340.66 309.896C338.124 309.896 336.069 311.95 336.069 314.484C336.069 317.018 338.124 319.072 340.66 319.072Z" fill="#BAC5F4"/>
<path d="M324.591 319.072C327.127 319.072 329.182 317.018 329.182 314.484C329.182 311.95 327.127 309.896 324.591 309.896C322.055 309.896 320 311.95 320 314.484C320 317.018 322.055 319.072 324.591 319.072Z" fill="#BAC5F4"/>
<path d="M184.562 320.218C187.098 320.218 189.154 318.164 189.154 315.631C189.154 313.097 187.098 311.043 184.562 311.043C182.027 311.043 179.971 313.097 179.971 315.631C179.971 318.164 182.027 320.218 184.562 320.218Z" fill="#BAC5F4"/>
<path d="M168.494 320.218C171.029 320.218 173.085 318.164 173.085 315.631C173.085 313.097 171.029 311.043 168.494 311.043C165.958 311.043 163.902 313.097 163.902 315.631C163.902 318.164 165.958 320.218 168.494 320.218Z" fill="#BAC5F4"/>
<path d="M325.739 141.3C328.274 141.3 330.33 139.246 330.33 136.712C330.33 134.178 328.274 132.125 325.739 132.125C323.203 132.125 321.148 134.178 321.148 136.712C321.148 139.246 323.203 141.3 325.739 141.3Z" fill="#BAC5F4"/>
<path d="M271.793 141.3C274.329 141.3 276.385 139.246 276.385 136.712C276.385 134.178 274.329 132.125 271.793 132.125C269.258 132.125 267.202 134.178 267.202 136.712C267.202 139.246 269.258 141.3 271.793 141.3Z" fill="white"/>
<path d="M287.862 141.3C290.398 141.3 292.453 139.246 292.453 136.712C292.453 134.178 290.398 132.125 287.862 132.125C285.327 132.125 283.271 134.178 283.271 136.712C283.271 139.246 285.327 141.3 287.862 141.3Z" fill="white"/>
<path d="M220.143 141.3C222.679 141.3 224.735 139.246 224.735 136.712C224.735 134.178 222.679 132.125 220.143 132.125C217.608 132.125 215.552 134.178 215.552 136.712C215.552 139.246 217.608 141.3 220.143 141.3Z" fill="white"/>
<path d="M236.212 141.3C238.748 141.3 240.803 139.246 240.803 136.712C240.803 134.178 238.748 132.125 236.212 132.125C233.677 132.125 231.621 134.178 231.621 136.712C231.621 139.246 233.677 141.3 236.212 141.3Z" fill="white"/>
<path d="M168.494 141.3C171.029 141.3 173.085 139.246 173.085 136.712C173.085 134.178 171.029 132.125 168.494 132.125C165.958 132.125 163.902 134.178 163.902 136.712C163.902 139.246 165.958 141.3 168.494 141.3Z" fill="white"/>
<path d="M184.562 141.3C187.098 141.3 189.154 139.246 189.154 136.712C189.154 134.178 187.098 132.125 184.562 132.125C182.027 132.125 179.971 134.178 179.971 136.712C179.971 139.246 182.027 141.3 184.562 141.3Z" fill="white"/>
<path d="M354.679 161.458H357.441V163.523H354.679V168.144H352.136V163.523H343.072V162.033L351.986 148.238H354.679V161.458ZM345.943 161.458H352.136V151.697L351.835 152.244L345.943 161.458Z" fill="#BAC5F4"/>
<path d="M254.892 168.144H241.849V166.326L248.74 158.669C249.761 157.512 250.463 156.573 250.846 155.853C251.237 155.124 251.433 154.372 251.433 153.597C251.433 152.558 251.119 151.706 250.49 151.04C249.861 150.375 249.023 150.042 247.974 150.042C246.717 150.042 245.737 150.402 245.035 151.122C244.342 151.833 243.996 152.827 243.996 154.103H241.467C241.467 152.271 242.055 150.79 243.23 149.66C244.415 148.529 245.997 147.964 247.974 147.964C249.825 147.964 251.288 148.452 252.363 149.427C253.439 150.393 253.976 151.683 253.976 153.296C253.976 155.256 252.728 157.589 250.23 160.296L244.898 166.079H254.892V168.144Z" fill="white"/>
<path d="M201.146 209.07L192.902 227.554H190.249L198.466 209.726H187.693V207.648H201.146V209.07Z" fill="#BAC5F4"/>
<path d="M342.363 227.623H339.82V210.766L334.72 212.639V210.342L341.966 207.621H342.363V227.623ZM362.255 219.133C362.255 222.095 361.75 224.296 360.738 225.736C359.726 227.176 358.145 227.896 355.994 227.896C353.87 227.896 352.298 227.195 351.277 225.791C350.256 224.378 349.727 222.273 349.691 219.475V216.098C349.691 213.172 350.197 210.998 351.208 209.576C352.22 208.154 353.806 207.443 355.966 207.443C358.108 207.443 359.685 208.131 360.697 209.508C361.708 210.875 362.228 212.989 362.255 215.851V219.133ZM359.726 215.674C359.726 213.532 359.425 211.973 358.824 210.998C358.222 210.014 357.27 209.521 355.966 209.521C354.672 209.521 353.729 210.009 353.136 210.984C352.544 211.96 352.238 213.459 352.22 215.482V219.529C352.22 221.68 352.53 223.271 353.15 224.301C353.779 225.322 354.727 225.832 355.994 225.832C357.242 225.832 358.167 225.349 358.769 224.383C359.38 223.417 359.699 221.894 359.726 219.816V215.674Z" fill="#BAC5F4"/>
<path d="M293.754 286.999H291.211V270.141L286.112 272.014V269.717L293.358 266.997H293.754V286.999ZM302.327 277.018L303.338 267.092H313.538V269.43H305.485L304.883 274.858C305.859 274.284 306.966 273.997 308.206 273.997C310.019 273.997 311.46 274.598 312.526 275.801C313.592 276.995 314.126 278.613 314.126 280.655C314.126 282.706 313.57 284.324 312.458 285.508C311.355 286.684 309.81 287.272 307.823 287.272C306.064 287.272 304.628 286.784 303.516 285.809C302.404 284.834 301.771 283.485 301.616 281.762H304.008C304.163 282.902 304.569 283.763 305.225 284.346C305.881 284.921 306.747 285.208 307.823 285.208C308.999 285.208 309.919 284.807 310.585 284.005C311.259 283.202 311.596 282.095 311.596 280.682C311.596 279.352 311.232 278.285 310.503 277.483C309.782 276.672 308.821 276.266 307.618 276.266C306.515 276.266 305.649 276.508 305.02 276.991L304.35 277.538L302.327 277.018Z" fill="#BAC5F4"/>
<path d="M448.704 289.293H446.161V272.435L441.062 274.308V272.011L448.308 269.291H448.704V289.293ZM468.187 274.582C468.187 275.575 467.922 276.459 467.394 277.234C466.874 278.009 466.168 278.615 465.275 279.052C466.314 279.499 467.134 280.151 467.736 281.007C468.346 281.864 468.652 282.835 468.652 283.919C468.652 285.642 468.068 287.014 466.902 288.035C465.744 289.056 464.217 289.566 462.321 289.566C460.407 289.566 458.872 289.056 457.714 288.035C456.566 287.005 455.991 285.633 455.991 283.919C455.991 282.844 456.283 281.873 456.866 281.007C457.459 280.141 458.275 279.485 459.314 279.039C458.43 278.601 457.732 277.995 457.222 277.22C456.711 276.446 456.456 275.566 456.456 274.582C456.456 272.904 456.994 271.574 458.07 270.589C459.145 269.605 460.562 269.113 462.321 269.113C464.071 269.113 465.484 269.605 466.56 270.589C467.644 271.574 468.187 272.904 468.187 274.582ZM466.122 283.865C466.122 282.753 465.767 281.846 465.056 281.144C464.354 280.442 463.433 280.091 462.294 280.091C461.155 280.091 460.239 280.438 459.546 281.13C458.862 281.823 458.521 282.735 458.521 283.865C458.521 284.995 458.853 285.884 459.519 286.531C460.193 287.178 461.127 287.501 462.321 287.501C463.506 287.501 464.436 287.178 465.111 286.531C465.785 285.875 466.122 284.986 466.122 283.865ZM462.321 271.191C461.328 271.191 460.521 271.501 459.902 272.121C459.291 272.731 458.986 273.565 458.986 274.623C458.986 275.634 459.286 276.455 459.888 277.084C460.499 277.703 461.31 278.013 462.321 278.013C463.333 278.013 464.14 277.703 464.741 277.084C465.352 276.455 465.657 275.634 465.657 274.623C465.657 273.611 465.343 272.786 464.714 272.148C464.085 271.51 463.288 271.191 462.321 271.191Z" fill="#BAC5F4"/>
<path d="M238.514 343.645H225.471V341.826L232.361 334.17C233.382 333.013 234.084 332.074 234.467 331.354C234.859 330.625 235.055 329.873 235.055 329.098C235.055 328.059 234.74 327.207 234.111 326.541C233.482 325.876 232.644 325.543 231.596 325.543C230.338 325.543 229.358 325.903 228.656 326.623C227.963 327.334 227.617 328.328 227.617 329.604H225.088C225.088 327.772 225.676 326.291 226.852 325.16C228.036 324.03 229.618 323.465 231.596 323.465C233.446 323.465 234.909 323.953 235.984 324.928C237.06 325.894 237.598 327.184 237.598 328.797C237.598 330.757 236.349 333.09 233.852 335.797L228.519 341.58H238.514V343.645Z" fill="#BAC5F4"/>
<path d="M251.416 335.155C251.416 338.117 250.911 340.318 249.899 341.758C248.887 343.198 247.306 343.918 245.155 343.918C243.031 343.918 241.459 343.216 240.438 341.813C239.417 340.4 238.888 338.295 238.852 335.496V332.119C238.852 329.194 239.358 327.02 240.37 325.598C241.381 324.176 242.967 323.465 245.127 323.465C247.269 323.465 248.846 324.153 249.858 325.53C250.87 326.897 251.389 329.011 251.416 331.873V335.155ZM248.887 331.696C248.887 329.554 248.586 327.995 247.985 327.02C247.383 326.035 246.431 325.543 245.127 325.543C243.833 325.543 242.89 326.031 242.297 327.006C241.705 327.981 241.4 329.481 241.381 331.504V335.551C241.381 337.702 241.691 339.293 242.311 340.323C242.94 341.343 243.888 341.854 245.155 341.854C246.403 341.854 247.329 341.371 247.93 340.405C248.541 339.438 248.86 337.916 248.887 335.838V331.696Z" fill="#BAC5F4"/>
<path d="M159.885 405.205C157.934 403.943 155.753 402.452 150.244 401.305C145.653 400.502 143.013 393.392 143.013 393.392H132.453C132.453 393.392 131.535 405.205 131.994 406.122C132.453 407.04 132.683 408.072 135.208 408.875C137.618 409.563 159.082 409.334 160 409.104C160.803 408.99 163.443 407.499 159.885 405.205Z" fill="#4B49BB"/>
<path d="M36.9584 291.89C35.5811 293.954 29.2683 314.484 29.2683 315.516C29.1535 316.548 29.7274 319.416 32.9412 316.778C34.6628 315.287 36.8436 313.681 39.4835 308.635C41.6643 304.62 49.2396 304.047 49.2396 304.047L52.4534 294.069C52.4534 294.069 41.4347 289.596 40.4017 289.711C39.3687 289.825 38.3357 289.825 36.9584 291.89Z" fill="#4B49BB"/>
<path d="M106.514 254.73C106.284 254.844 105.94 256.794 105.825 257.023C104.218 262.07 89.5265 306.8 89.5265 308.635C89.5265 310.584 57.9627 296.248 52.9125 294.069C52.4534 293.839 52.109 294.069 51.8795 294.413C50.8465 296.592 47.977 303.015 49.01 303.818C50.2726 304.735 83.4433 328.362 86.198 329.05C88.9526 329.738 92.9699 333.064 99.7417 325.035C105.595 318.039 121.894 291.66 126.37 284.205C126.6 283.861 127.059 283.747 127.403 283.976C127.633 284.091 127.747 284.32 127.862 284.549C128.666 291.66 129.01 319.186 131.42 326.641C133.831 333.981 130.387 341.895 130.387 352.791L132.339 392.703C132.339 393.162 132.683 393.392 133.027 393.392L142.209 393.621C142.669 393.621 142.898 393.392 143.013 392.933C143.587 386.51 149.67 338.225 150.244 330.77C150.933 322.627 154.835 254.386 153.802 250.257C152.999 247.619 111.564 253.927 106.514 254.73Z" fill="url(#paint0_linear)"/>
<path d="M109.957 134.648C109.957 134.648 112.253 125.472 114.089 125.472C115.925 125.472 127.059 126.849 128.436 133.386C129.813 139.924 134.864 143.594 134.864 151.393C134.864 159.306 138.077 162.862 138.077 162.862C138.077 162.862 141.75 151.278 144.505 146.232C147.26 141.185 152.08 138.088 152.08 134.648C152.08 131.207 148.063 92.7854 147.719 91.7531C147.374 90.7209 146.341 84.6423 148.752 81.2015C148.752 81.2015 156.098 75.1229 157.016 72.7144C157.704 70.6499 160.115 69.503 161.492 71.9115C162.869 74.32 157.245 80.7428 156.327 83.266C155.524 85.6745 154.95 88.1977 154.605 90.8356C154.605 91.5237 153.228 101.731 153.228 106.778C153.228 111.824 156.327 127.881 156.327 133.042C156.327 138.088 145.079 158.504 144.046 162.288C143.013 166.073 110.301 201.742 109.613 202.774C108.924 203.807 105.595 211.606 105.595 214.358C105.595 217.111 105.595 225.942 106.973 224.222C108.35 222.501 113.974 208.968 115.007 207.247C116.04 205.527 124.075 203.921 127.862 202.889C131.65 201.857 137.274 203.921 136.585 206.33C135.897 208.738 124.878 213.211 121.32 214.014C119.139 214.588 109.383 225.254 108.694 228.351C108.006 231.447 99.1679 226.974 99.1679 222.616C99.1679 218.258 100.201 195.778 101.578 192.682C102.956 189.585 109.154 176.395 112.482 169.514C115.925 162.632 108.465 159.306 107.088 154.489C105.366 149.787 109.957 134.648 109.957 134.648Z" fill="url(#paint1_linear)"/>
<path d="M139.225 156.439C139.225 156.439 148.063 140.497 148.981 136.483C149.9 132.469 147.604 91.6385 147.604 91.6385L154.491 90.6062C154.491 90.6062 161.033 128.454 161.951 132.927C162.869 137.286 159.656 146.805 156.557 152.196C153.458 157.586 145.079 179.951 145.079 182.589C145.079 185.227 145.653 210.344 147.03 215.276C148.407 220.208 153.917 250.486 153.917 250.486L106.514 254.959C106.514 254.959 108.58 241.77 108.465 237.297C108.121 227.662 105.481 220.437 112.482 215.849C117.188 212.867 121.664 214.244 126.829 211.835C132.683 208.968 134.06 206.559 134.405 204.954C134.634 204.036 133.142 201.857 123.96 205.183C120.861 206.33 114.778 206.215 114.548 210.229C114.433 213.555 118.795 220.781 113.63 223.992C113.63 223.992 107.776 237.87 102.267 240.049C97.561 241.884 91.9369 236.838 92.0517 230.3C92.1664 222.387 92.6255 207.362 96.2984 200.825C99.8565 194.287 109.727 177.428 111.449 176.051C113.171 174.675 118.565 181.098 124.763 180.295C130.961 179.377 133.601 176.51 134.978 173.413C136.241 170.202 139.225 156.439 139.225 156.439Z" fill="url(#paint2_linear)"/>
<path d="M119.369 127.422C122.123 131.895 125.796 135.795 129.928 138.891C137.159 144.396 130.043 159.88 129.699 167.564C129.469 173.758 133.142 182.245 141.98 187.979C148.407 192.223 143.931 201.628 143.931 206.445C143.931 211.147 154.261 199.792 154.605 194.287C155.065 187.635 153.343 182.818 148.637 177.428C144.275 172.381 139.11 153.342 137.618 144.282C137.504 143.364 137.389 142.447 137.504 141.529C137.618 138.318 137.274 128.225 128.092 122.605C117.188 115.838 110.416 122.032 106.055 125.816C100.66 130.404 98.4792 143.02 99.8565 162.632C101.234 182.245 97.7905 193.484 95.495 199.104C90.2152 212.064 104.562 203.004 107.202 195.549C110.646 186.029 112.941 185.227 117.762 177.772C119.713 174.904 117.188 164.926 115.007 160.797C110.99 152.769 108.694 149.443 108.694 144.052C108.694 138.662 115.352 129.487 119.369 127.422Z" fill="url(#paint3_linear)"/>
<path opacity="0.07" d="M121.549 162.518C121.549 162.518 129.24 162.977 131.306 158.159C131.535 157.586 130.043 173.069 129.699 171.005C129.125 168.94 121.549 162.518 121.549 162.518Z" fill="black"/>
<path opacity="0.07" d="M108.006 198.301C108.006 198.301 106.284 209.312 105.251 214.244C104.677 216.996 104.333 219.634 104.333 222.387C104.333 222.387 110.875 214.244 112.941 211.032C114.204 208.968 110.301 210 109.957 202.545C109.613 195.09 109.727 190.388 109.727 190.388L108.006 198.301Z" fill="black"/>
<path opacity="0.07" d="M108.58 233.512C108.58 233.512 114.433 227.777 114.663 224.795C115.007 220.896 117.762 221.125 117.762 223.534C117.762 225.942 113.4 244.178 116.04 248.995C118.68 253.812 120.746 253.697 120.746 253.697L106.514 254.73L108.58 233.512Z" fill="black"/>
<path opacity="0.07" d="M120.746 253.697C120.746 253.697 121.549 268.149 116.384 272.966C105.825 282.829 112.023 295.674 107.317 301.294C103.415 305.997 102.382 319.416 92.9699 322.398C89.297 323.659 75.868 315.401 73.1133 314.484C67.3745 312.534 63.2425 301.524 45.3372 295.789C41.0904 294.413 56.3558 295.904 56.3558 295.904L89.5265 309.667L106.628 254.844L120.746 253.697Z" fill="black"/>
<path d="M425.136 383.299H423.529L414.921 383.413C414.921 383.413 413.085 392.245 412.052 395.915C412.052 396.144 411.822 396.718 411.707 397.176C411.593 397.865 411.478 398.438 411.478 399.126C411.707 402.452 412.855 405.32 415.954 406.811C419.283 408.416 421.808 410.022 425.251 406.811C428.694 403.599 429.268 401.649 427.891 396.029C426.399 390.524 425.94 383.413 425.136 383.299Z" fill="#4B44BE"/>
<path d="M461.291 394.309C455.323 392.474 451.306 384.331 451.306 384.331L441.09 383.758C441.09 383.758 440.517 392.015 440.287 396.144C439.943 401.649 440.861 404.173 444.534 403.829C449.354 403.484 468.867 405.205 471.966 403.255C475.983 400.617 466.801 396.029 461.291 394.309Z" fill="#4B44BE"/>
<path d="M400.344 237.411V249.569L415.036 383.413H425.481C425.481 383.413 429.039 291.66 429.039 288.449C429.039 285.238 429.957 275.259 429.957 275.259C429.957 275.259 443.042 312.993 443.271 316.09C443.501 319.186 441.09 384.216 441.09 384.216L451.535 384.675C451.535 384.675 460.603 340.748 460.603 336.619C460.603 332.49 463.702 310.814 463.242 306.685C462.783 302.556 455.093 237.87 455.093 237.87L439.139 237.411H400.344Z" fill="url(#paint4_linear)"/>
<path d="M467.719 223.304L467.604 223.075C467.604 223.304 467.604 223.419 467.719 223.304ZM437.188 211.606L431.334 214.014L430.99 222.043L437.418 224.566C437.418 224.566 444.419 224.336 444.419 224.222C444.419 223.878 447.174 223.992 448.436 224.795L470.244 217.34L471.047 212.179C471.047 212.179 472.654 218.717 465.423 205.527L437.188 211.606ZM463.128 185.112L462.669 182.474L461.521 182.245L463.128 185.112ZM422.956 115.15C420.316 116.297 418.938 120.197 418.938 120.197C418.938 120.197 417.676 119.394 417.676 121.573C417.676 123.752 418.824 128.798 419.512 130.06C420.89 132.239 422.152 134.418 423.3 136.712C424.333 139.006 423.989 143.708 422.841 144.397C421.693 145.085 401.951 162.862 401.951 162.862L385.653 212.982V214.932L388.178 215.849L390.818 218.028C391.047 218.028 394.376 219.863 394.835 220.208C397.475 221.469 400.23 222.501 402.984 223.075C404.821 223.419 412.97 223.304 412.97 223.304L421.234 223.075L419.857 212.523L407.575 212.409L390.818 211.606L407.805 172.611L461.291 182.13C451.765 164.926 441.09 145.658 440.172 143.594C439.369 141.988 440.172 137.974 440.631 135.909C441.09 134.074 442.009 131.666 442.812 130.978C443.73 130.289 445.222 127.193 445.222 125.931C445.222 124.67 445.567 119.394 444.534 120.541C444.189 120.885 442.927 118.935 442.468 116.871C441.779 114.003 439.713 111.939 437.418 110.104C437.418 110.104 425.595 114.003 422.956 115.036" fill="url(#paint5_linear)"/>
<path d="M402.41 152.196C399.77 153.916 397.475 156.324 396.557 159.306C395.638 162.403 389.44 186.029 388.637 189.126C386.571 196.466 385.423 198.531 383.013 207.247C380.029 217.914 386.801 219.519 393.802 221.01C401.033 222.616 401.033 223.304 402.755 223.304C402.984 223.304 411.593 225.025 411.822 220.208C412.052 217.111 411.478 212.294 410.33 212.409C407.69 212.753 399.197 210.573 398.737 210.229C398.164 209.885 400.574 203.233 401.951 199.104C402.984 196.008 406.887 183.392 407.805 181.098C408.264 179.836 405.624 193.37 404.017 206.674C404.017 207.133 403.329 212.294 403.558 212.294C405.509 212.294 410.789 212.409 412.511 212.523C419.971 213.441 421.463 216.996 421.004 219.863C420.201 224.795 401.951 222.501 402.066 223.19C402.066 223.19 398.967 237.297 400.689 238.214C402.181 239.017 422.611 247.504 426.973 249.11C427.432 249.339 428.006 249.11 428.121 248.536L430.875 240.623C430.875 240.508 430.99 240.508 431.105 240.508C431.105 240.508 431.22 240.508 431.22 240.623L433.859 249.339C433.859 249.569 434.089 249.798 434.319 249.798H435.466L458.192 244.866C458.192 244.866 458.077 235.92 458.077 224.451C458.077 223.304 457.848 219.061 457.044 219.863C456.241 220.666 437.303 223.19 435.237 222.272C430.875 220.437 432.023 215.849 433.515 214.014C435.237 211.835 457.618 210.803 457.733 209.197C458.077 202.201 457.504 183.736 457.159 186.029C456.585 189.47 443.501 208.394 443.501 211.72C443.501 215.046 443.271 223.304 443.271 223.304L464.735 221.699C464.735 221.699 471.966 219.175 472.539 215.046C473.228 210.918 472.425 209.082 472.08 202.889C471.851 198.99 466.341 175.363 464.735 168.711C464.505 167.679 464.39 166.647 464.275 165.614C464.046 162.862 463.013 156.439 457.044 153.572C449.699 150.016 443.845 147.264 442.353 147.264C440.976 147.264 437.188 155.522 435.237 157.93C434.319 158.962 434.548 159.536 433.4 161.027C432.826 161.83 431.679 161.944 430.875 161.486C430.646 161.371 430.531 161.141 430.416 161.027C429.727 160.109 429.268 159.077 428.694 158.045C427.776 156.324 421.004 146.232 421.004 146.232C421.004 146.232 405.05 150.36 402.41 152.196Z" fill="url(#paint6_linear)"/>
<path d="M437.418 110.218C437.418 110.218 422.956 115.609 421.923 116.412C420.89 117.215 418.938 120.197 418.938 120.197C418.938 120.197 417.905 119.623 417.676 121.114C417.676 121.114 416.184 118.017 416.069 116.412C415.839 114.691 416.069 110.333 418.824 107.466C421.578 104.599 427.202 100.699 430.646 101.273C434.089 101.731 435.581 102.19 437.762 104.369C439.943 106.548 441.779 107.236 442.468 107.466C443.156 107.81 445.567 109.645 446.026 112.971C446.485 116.297 445.337 123.064 445.337 123.064C445.337 123.064 445.681 120.426 444.649 121.229C443.96 121.802 442.812 119.394 442.468 117.903C441.894 116.526 438.221 110.677 437.418 110.218Z" fill="url(#paint7_linear)"/>
<g opacity="0.07">
<g opacity="0.07">
<g opacity="0.07">
<g opacity="0.07">
<g opacity="0.07">
<path opacity="0.07" d="M442.238 147.149C442.123 146.92 443.845 148.067 441.894 146.69C439.139 144.741 440.516 136.597 440.516 136.597C439.483 138.777 437.762 140.382 435.581 141.185C432.138 142.447 431.105 141.529 436.385 144.626C441.664 147.723 438.91 148.755 438.565 152.769" fill="black"/>
</g>
</g>
</g>
</g>
</g>
<g opacity="0.07">
<g opacity="0.07">
<g opacity="0.07">
<g opacity="0.07">
<g opacity="0.07">
<path opacity="0.07" d="M452.912 175.937L460.143 203.233C460.143 203.233 460.143 208.05 458.651 208.853C457.274 209.541 452.683 210 451.65 210.459C450.617 210.918 439.598 213.211 442.468 209.312C443.156 208.394 458.077 203.233 451.42 197.728C444.763 192.223 445.911 184.653 449.125 179.377C452.339 174.102 451.65 169.629 451.65 169.629L452.912 175.937Z" fill="black"/>
</g>
</g>
</g>
</g>
</g>
<g opacity="0.07">
<g opacity="0.07">
<g opacity="0.07">
<g opacity="0.07">
<g opacity="0.07">
<path opacity="0.07" d="M422.382 247.848C422.382 247.848 416.184 280.879 419.397 294.069C424.333 314.14 417.217 341.207 417.217 354.167C417.217 362.654 420.545 385.937 420.775 395.456C420.775 398.323 422.956 403.828 421.349 405.205C420.66 405.778 416.758 404.517 414.577 403.484C413.429 402.911 412.74 401.764 412.97 400.502L414.232 394.883L416.069 387.428L403.099 266.543C403.099 266.543 398.967 239.59 401.263 239.59C403.673 239.361 422.382 247.848 422.382 247.848Z" fill="black"/>
</g>
</g>
</g>
</g>
</g>
<path d="M416.413 203.348L440.861 206.445C441.32 206.559 441.664 207.018 441.664 207.591L440.976 229.612C440.976 230.3 440.517 231.218 439.828 230.989L415.495 226.286C415.036 226.171 414.692 225.713 414.692 225.254L414.577 222.845L417.217 222.157C417.905 221.928 418.594 221.584 419.053 221.24C419.168 221.125 419.283 221.01 419.397 220.896L419.971 220.093C420.201 219.863 420.201 219.519 420.201 219.175C420.086 218.717 419.971 218.028 419.857 217.57C419.857 217.455 419.742 217.34 419.742 217.226L419.168 215.964C418.938 215.39 418.479 214.932 417.791 214.588L417.446 214.358L414.806 212.982L415.036 204.38C415.036 203.807 415.495 203.348 416.184 203.348C416.413 203.348 416.413 203.348 416.413 203.348Z" fill="white"/>
<path d="M128.666 60.6718L134.29 60.3277C134.29 60.3277 135.438 53.5609 139.914 51.3818V43.9268C139.914 43.9268 145.194 46.9088 146.227 47.2529C147.374 47.5969 157.475 42.7799 168.953 49.8908C178.709 55.8547 176.528 66.2917 175.61 69.503C175.495 70.0765 175.151 70.6499 174.806 71.1087C174.003 72.2556 172.396 74.4347 171.593 75.2376C170.445 76.3845 172.281 82.5778 170.789 83.0366C169.641 83.3807 167.461 78.5636 166.313 78.9077C160.344 80.9722 153.802 81.2015 147.604 79.4812C147.145 79.3665 146.801 79.5959 146.571 79.9399C146.112 80.9722 145.079 82.8072 144.275 83.3807C143.128 84.1835 143.128 79.2518 141.98 78.5636C140.832 77.8755 128.551 66.9798 128.551 66.9798V60.6718H128.666Z" fill="url(#paint8_linear)"/>
<path d="M175.495 61.8187C175.495 61.8187 180.086 58.6073 182.496 61.0158C184.907 63.4244 184.562 65.9476 182.611 66.521C181.119 66.9798 178.824 64.4566 179.857 62.9656C180.89 61.4746 182.611 60.5571 184.562 61.8187C186.514 63.0803 187.432 65.8329 187.547 67.3239" stroke="#F93764" stroke-width="4" stroke-miterlimit="10" stroke-linecap="round"/>
<path d="M140.603 63.195C141.744 63.195 142.669 62.2707 142.669 61.1305C142.669 59.9904 141.744 59.0661 140.603 59.0661C139.462 59.0661 138.537 59.9904 138.537 61.1305C138.537 62.2707 139.462 63.195 140.603 63.195Z" fill="#F7B14A"/>
<path d="M149.211 48.5145C149.211 48.5145 157.59 46.2206 162.984 48.7439" stroke="url(#paint9_linear)" stroke-linecap="round" stroke-linejoin="round"/>
<path d="M156.212 40.2567C160.84 40.2567 164.591 36.5082 164.591 31.8842C164.591 27.2602 160.84 23.5117 156.212 23.5117C151.585 23.5117 147.834 27.2602 147.834 31.8842C147.834 36.5082 151.585 40.2567 156.212 40.2567Z" fill="url(#paint10_linear)"/>
<path d="M156.098 38.8804C159.901 38.8804 162.984 35.7995 162.984 31.9989C162.984 28.1984 159.901 25.1174 156.098 25.1174C152.294 25.1174 149.211 28.1984 149.211 31.9989C149.211 35.7995 152.294 38.8804 156.098 38.8804Z" stroke="url(#paint11_linear)" stroke-miterlimit="10"/>
<path d="M157.066 31.5322C157.066 31.2722 156.974 31.0531 156.79 30.875C156.609 30.6968 156.302 30.5357 155.87 30.3915C155.268 30.2078 154.828 29.9689 154.551 29.6749C154.277 29.378 154.14 29.002 154.14 28.5468C154.14 28.0832 154.274 27.703 154.542 27.4061C154.814 27.1093 155.186 26.9326 155.658 26.876V25.9473H156.29V26.8803C156.764 26.9453 157.133 27.1446 157.396 27.4782C157.662 27.8118 157.795 28.2684 157.795 28.8479H157.015C157.015 28.4493 156.92 28.1327 156.731 27.898C156.541 27.6634 156.285 27.5461 155.963 27.5461C155.627 27.5461 155.369 27.6337 155.191 27.809C155.013 27.9814 154.924 28.2231 154.924 28.5341C154.924 28.8225 155.017 29.0529 155.204 29.2253C155.393 29.395 155.703 29.5505 156.133 29.6918C156.565 29.8303 156.902 29.9844 157.142 30.154C157.385 30.3208 157.563 30.5159 157.676 30.7393C157.792 30.9626 157.85 31.2241 157.85 31.5238C157.85 32.0015 157.706 32.386 157.418 32.6772C157.132 32.9684 156.731 33.1409 156.213 33.1946V34.0045H155.586V33.1946C155.06 33.1465 154.647 32.9599 154.347 32.6348C154.05 32.3069 153.902 31.863 153.902 31.3033H154.687C154.687 31.6962 154.79 31.9987 154.996 32.2107C155.203 32.4228 155.495 32.5288 155.874 32.5288C156.244 32.5288 156.536 32.4397 156.748 32.2616C156.96 32.0835 157.066 31.8404 157.066 31.5322Z" fill="#F9B449"/>
<path d="M165.968 22.2501C169.011 22.2501 171.478 19.7854 171.478 16.7449C171.478 13.7045 169.011 11.2398 165.968 11.2398C162.926 11.2398 160.459 13.7045 160.459 16.7449C160.459 19.7854 162.926 22.2501 165.968 22.2501Z" fill="url(#paint12_linear)"/>
<path d="M165.854 21.2179C168.326 21.2179 170.33 19.2153 170.33 16.745C170.33 14.2746 168.326 12.272 165.854 12.272C163.381 12.272 161.377 14.2746 161.377 16.745C161.377 19.2153 163.381 21.2179 165.854 21.2179Z" stroke="url(#paint13_linear)" stroke-miterlimit="10"/>
<path d="M166.488 16.1918C166.488 16.0206 166.427 15.8764 166.306 15.7592C166.187 15.642 165.985 15.5359 165.701 15.441C165.304 15.3201 165.015 15.1628 164.833 14.9693C164.652 14.7739 164.562 14.5265 164.562 14.2269C164.562 13.9217 164.65 13.6715 164.827 13.4761C165.006 13.2807 165.25 13.1644 165.561 13.1272V12.5159H165.977V13.13C166.29 13.1728 166.532 13.304 166.706 13.5235C166.88 13.7431 166.968 14.0436 166.968 14.4251H166.454C166.454 14.1627 166.392 13.9543 166.267 13.7998C166.143 13.6454 165.974 13.5682 165.762 13.5682C165.541 13.5682 165.371 13.6259 165.254 13.7412C165.137 13.8547 165.078 14.0138 165.078 14.2185C165.078 14.4083 165.14 14.56 165.262 14.6735C165.387 14.7851 165.591 14.8874 165.874 14.9805C166.158 15.0717 166.38 15.1731 166.538 15.2847C166.698 15.3945 166.815 15.5229 166.89 15.6699C166.966 15.8169 167.004 15.989 167.004 16.1862C167.004 16.5007 166.909 16.7538 166.719 16.9454C166.532 17.1371 166.267 17.2506 165.927 17.2859V17.819H165.514V17.2859C165.168 17.2543 164.896 17.1315 164.699 16.9175C164.503 16.7017 164.406 16.4095 164.406 16.0411H164.922C164.922 16.2998 164.99 16.4988 165.126 16.6384C165.262 16.778 165.454 16.8477 165.703 16.8477C165.947 16.8477 166.139 16.7891 166.278 16.6719C166.418 16.5547 166.488 16.3946 166.488 16.1918Z" fill="#F9B449"/>
<path d="M146.227 24.1999C148.382 24.1999 150.129 22.454 150.129 20.3004C150.129 18.1467 148.382 16.4009 146.227 16.4009C144.071 16.4009 142.324 18.1467 142.324 20.3004C142.324 22.454 144.071 24.1999 146.227 24.1999Z" fill="url(#paint14_linear)"/>
<path d="M146.227 23.5118C148.002 23.5118 149.44 22.074 149.44 20.3004C149.44 18.5268 148.002 17.089 146.227 17.089C144.452 17.089 143.013 18.5268 143.013 20.3004C143.013 22.074 144.452 23.5118 146.227 23.5118Z" stroke="url(#paint15_linear)" stroke-miterlimit="10"/>
<path d="M146.674 20.4007C146.674 20.2782 146.63 20.175 146.544 20.0911C146.459 20.0073 146.314 19.9314 146.111 19.8634C145.827 19.7769 145.62 19.6644 145.489 19.5259C145.36 19.3861 145.296 19.209 145.296 18.9946C145.296 18.7763 145.359 18.5972 145.485 18.4574C145.613 18.3176 145.788 18.2343 146.011 18.2077V17.7703H146.308V18.2097C146.532 18.2403 146.706 18.3342 146.83 18.4913C146.955 18.6484 147.017 18.8635 147.017 19.1364H146.65C146.65 18.9487 146.605 18.7996 146.516 18.6891C146.427 18.5785 146.306 18.5233 146.154 18.5233C145.996 18.5233 145.875 18.5646 145.791 18.6471C145.707 18.7283 145.665 18.8422 145.665 18.9886C145.665 19.1245 145.709 19.233 145.797 19.3142C145.886 19.3941 146.032 19.4673 146.234 19.5339C146.438 19.5991 146.597 19.6717 146.71 19.7516C146.824 19.8302 146.908 19.922 146.961 20.0272C147.016 20.1324 147.043 20.2556 147.043 20.3967C147.043 20.6217 146.975 20.8028 146.84 20.94C146.705 21.0771 146.516 21.1583 146.272 21.1836V21.5651H145.977V21.1836C145.729 21.161 145.535 21.0731 145.394 20.92C145.254 20.7655 145.184 20.5565 145.184 20.2929H145.553C145.553 20.4779 145.602 20.6204 145.699 20.7203C145.796 20.8201 145.934 20.8701 146.113 20.8701C146.287 20.8701 146.424 20.8281 146.524 20.7442C146.624 20.6604 146.674 20.5458 146.674 20.4007Z" fill="#F9B449"/>
</g>
<defs>
<linearGradient id="paint0_linear" x1="48.8333" y1="321.593" x2="153.859" y2="321.593" gradientUnits="userSpaceOnUse">
<stop stop-color="#4F68CA"/>
<stop offset="1" stop-color="#5ACEED"/>
</linearGradient>
<linearGradient id="paint1_linear" x1="98.8073" y1="150.012" x2="161.445" y2="150.012" gradientUnits="userSpaceOnUse">
<stop offset="0.11" stop-color="#F87B58"/>
<stop offset="0.5" stop-color="#F8C548"/>
<stop offset="1" stop-color="#F89C51"/>
</linearGradient>
<linearGradient id="paint2_linear" x1="98.8994" y1="207.053" x2="196.823" y2="138.846" gradientUnits="userSpaceOnUse">
<stop stop-color="#7658F4"/>
<stop offset="1" stop-color="#E1A1ED"/>
</linearGradient>
<linearGradient id="paint3_linear" x1="94.4621" y1="163.719" x2="154.68" y2="163.719" gradientUnits="userSpaceOnUse">
<stop stop-color="#4B44BE"/>
<stop offset="1" stop-color="#5BD3EF"/>
</linearGradient>
<linearGradient id="paint4_linear" x1="400.29" y1="310.965" x2="463.244" y2="310.965" gradientUnits="userSpaceOnUse">
<stop stop-color="#4F68CA"/>
<stop offset="1" stop-color="#5ACEED"/>
</linearGradient>
<linearGradient id="paint5_linear" x1="385.695" y1="167.5" x2="471.155" y2="167.5" gradientUnits="userSpaceOnUse">
<stop stop-color="#F87B58"/>
<stop offset="0.41" stop-color="#F89453"/>
<stop offset="0.71" stop-color="#F8C548"/>
<stop offset="1" stop-color="#F89C51"/>
</linearGradient>
<linearGradient id="paint6_linear" x1="382.305" y1="197.984" x2="472.637" y2="197.984" gradientUnits="userSpaceOnUse">
<stop stop-color="#E1A1ED"/>
<stop offset="1" stop-color="#7658F4"/>
</linearGradient>
<linearGradient id="paint7_linear" x1="415.988" y1="112.071" x2="446.059" y2="112.071" gradientUnits="userSpaceOnUse">
<stop stop-color="#5ACEED"/>
<stop offset="0.55" stop-color="#4F68CA"/>
<stop offset="1" stop-color="#5282D3"/>
</linearGradient>
<linearGradient id="paint8_linear" x1="170.596" y1="76.8553" x2="131.926" y2="48.7354" gradientUnits="userSpaceOnUse">
<stop stop-color="#F92468"/>
<stop offset="1" stop-color="#F9B449"/>
</linearGradient>
<linearGradient id="paint9_linear" x1="148.564" y1="48.1854" x2="163.483" y2="48.1854" gradientUnits="userSpaceOnUse">
<stop stop-color="#F92468"/>
<stop offset="1" stop-color="#F93764"/>
</linearGradient>
<linearGradient id="paint10_linear" x1="145.339" y1="48.0897" x2="161.202" y2="24.4429" gradientUnits="userSpaceOnUse">
<stop stop-color="#F92468"/>
<stop offset="1" stop-color="#F9B449"/>
</linearGradient>
<linearGradient id="paint11_linear" x1="148.733" y1="31.9441" x2="163.54" y2="31.9441" gradientUnits="userSpaceOnUse">
<stop stop-color="#F92468"/>
<stop offset="1" stop-color="#F93764"/>
</linearGradient>
<linearGradient id="paint12_linear" x1="158.755" y1="27.35" x2="169.198" y2="11.7806" gradientUnits="userSpaceOnUse">
<stop stop-color="#F92468"/>
<stop offset="1" stop-color="#F9B449"/>
</linearGradient>
<linearGradient id="paint13_linear" x1="160.812" y1="16.7288" x2="170.951" y2="16.7288" gradientUnits="userSpaceOnUse">
<stop stop-color="#F92468"/>
<stop offset="1" stop-color="#F93764"/>
</linearGradient>
<linearGradient id="paint14_linear" x1="141.132" y1="27.9585" x2="148.607" y2="16.8177" gradientUnits="userSpaceOnUse">
<stop stop-color="#F92468"/>
<stop offset="1" stop-color="#F9B449"/>
</linearGradient>
<linearGradient id="paint15_linear" x1="142.443" y1="20.3462" x2="150.026" y2="20.3462" gradientUnits="userSpaceOnUse">
<stop stop-color="#F92468"/>
<stop offset="1" stop-color="#F93764"/>
</linearGradient>
<clipPath id="clip0">
<rect width="560" height="420" fill="white"/>
</clipPath>
</defs>
</svg>
