<svg width="40" height="40" viewBox="0 0 40 40" fill="none" xmlns="http://www.w3.org/2000/svg">
<path d="M37.9688 0.46875H2.03125C1.16699 0.46875 0.46875 1.16699 0.46875 2.03125V37.9688C0.46875 38.833 1.16699 39.5312 2.03125 39.5312H37.9688C38.833 39.5312 39.5312 38.833 39.5312 37.9688V2.03125C39.5312 1.16699 38.833 0.46875 37.9688 0.46875ZM33.457 11.8701H30.3369C27.8906 11.8701 27.417 13.0322 27.417 14.7412V18.5059H33.2568L32.4951 24.3994H27.417V39.5312H21.3281V24.4043H16.2354V18.5059H21.3281V14.1602C21.3281 9.11621 24.4092 6.36719 28.9111 6.36719C31.0693 6.36719 32.9199 6.52832 33.4619 6.60156V11.8701H33.457Z" fill="#248AD3"/>
</svg>
