<svg width="44" height="44" viewBox="0 0 44 44" fill="none" xmlns="http://www.w3.org/2000/svg">
<path d="M37.8125 4.8125H6.1875C5.42695 4.8125 4.8125 5.42695 4.8125 6.1875V37.8125C4.8125 38.573 5.42695 39.1875 6.1875 39.1875H37.8125C38.573 39.1875 39.1875 38.573 39.1875 37.8125V6.1875C39.1875 5.42695 38.573 4.8125 37.8125 4.8125ZM22.0473 22.2621L13.7973 29.1801C13.5738 29.3691 13.2344 29.2102 13.2344 28.918V26.2238C13.2344 26.125 13.2816 26.0262 13.359 25.9617L18.077 22L13.359 18.0383C13.3195 18.0071 13.2877 17.9672 13.2661 17.9218C13.2445 17.8763 13.2336 17.8265 13.2344 17.7762V15.082C13.2344 14.7898 13.5738 14.6309 13.7973 14.8199L22.0473 21.7336C22.2148 21.8711 22.2148 22.1246 22.0473 22.2621V22.2621ZM30.7656 28.918C30.7656 29.107 30.6195 29.2617 30.4434 29.2617H22.4941C22.318 29.2617 22.1719 29.107 22.1719 28.918V26.8555C22.1719 26.6664 22.318 26.5117 22.4941 26.5117H30.4434C30.6195 26.5117 30.7656 26.6664 30.7656 26.8555V28.918Z" fill="#248AD3"/>
</svg>
