<svg width="44" height="44" viewBox="0 0 44 44" fill="none" xmlns="http://www.w3.org/2000/svg">
<path d="M39.0625 0.125H4.6875C2.09961 0.125 0 2.22461 0 4.8125V39.1875C0 41.7754 2.09961 43.875 4.6875 43.875H39.0625C41.6504 43.875 43.75 41.7754 43.75 39.1875V4.8125C43.75 2.22461 41.6504 0.125 39.0625 0.125ZM27.0801 37.5957C26.2598 37.7422 25.957 37.2344 25.957 36.8145C25.957 36.2871 25.9766 33.5918 25.9766 31.4141C25.9766 29.8906 25.4688 28.9238 24.873 28.416C28.4863 28.0156 32.2949 27.5176 32.2949 21.2773C32.2949 19.5 31.6602 18.6113 30.625 17.4688C30.791 17.0488 31.3477 15.3203 30.459 13.0742C29.1016 12.6543 25.9961 14.8223 25.9961 14.8223C24.707 14.4609 23.3105 14.2754 21.9336 14.2754C20.5566 14.2754 19.1602 14.4609 17.8711 14.8223C17.8711 14.8223 14.7656 12.6543 13.4082 13.0742C12.5195 15.3105 13.0664 17.0391 13.2422 17.4688C12.207 18.6113 11.7188 19.5 11.7188 21.2773C11.7188 27.4883 15.3613 28.0156 18.9746 28.416C18.5059 28.8359 18.0859 29.5586 17.9395 30.5937C17.0117 31.0137 14.6387 31.7363 13.2227 29.2363C12.334 27.6934 10.7324 27.5664 10.7324 27.5664C9.15039 27.5469 10.625 28.5625 10.625 28.5625C11.6797 29.0508 12.4219 30.9258 12.4219 30.9258C13.3691 33.8262 17.9004 32.8496 17.9004 32.8496C17.9004 34.207 17.9199 36.4141 17.9199 36.8145C17.9199 37.2344 17.627 37.7422 16.7969 37.5957C10.3516 35.4375 5.83984 29.3047 5.83984 22.1367C5.83984 13.1719 12.6953 6.36523 21.6602 6.36523C30.625 6.36523 37.8906 13.1719 37.8906 22.1367C37.9004 29.3047 33.5254 35.4473 27.0801 37.5957ZM17.5 31.6289C17.3145 31.668 17.1387 31.5898 17.1191 31.4629C17.0996 31.3164 17.2266 31.1895 17.4121 31.1504C17.5977 31.1309 17.7734 31.209 17.793 31.3359C17.8223 31.4629 17.6953 31.5898 17.5 31.6289ZM16.5723 31.541C16.5723 31.668 16.4258 31.7754 16.2305 31.7754C16.0156 31.7949 15.8691 31.6875 15.8691 31.541C15.8691 31.4141 16.0156 31.3066 16.2109 31.3066C16.3965 31.2871 16.5723 31.3945 16.5723 31.541ZM15.2344 31.4336C15.1953 31.5605 15 31.6191 14.834 31.5605C14.6484 31.5215 14.5215 31.375 14.5605 31.248C14.5996 31.1211 14.7949 31.0625 14.9609 31.1016C15.1562 31.1602 15.2832 31.3066 15.2344 31.4336ZM14.0332 30.9062C13.9453 31.0137 13.7598 30.9941 13.6133 30.8477C13.4668 30.7207 13.4277 30.5352 13.5254 30.4473C13.6133 30.3398 13.7988 30.3594 13.9453 30.5059C14.0723 30.6328 14.1211 30.8281 14.0332 30.9062ZM13.1445 30.0176C13.0566 30.0762 12.8906 30.0176 12.7832 29.8711C12.6758 29.7246 12.6758 29.5586 12.7832 29.4902C12.8906 29.4023 13.0566 29.4707 13.1445 29.6172C13.252 29.7637 13.252 29.9395 13.1445 30.0176ZM12.5098 29.0703C12.4219 29.1582 12.2754 29.1094 12.168 29.0117C12.0605 28.8848 12.041 28.7383 12.1289 28.6699C12.2168 28.582 12.3633 28.6309 12.4707 28.7285C12.5781 28.8555 12.5977 29.002 12.5098 29.0703ZM11.8555 28.3477C11.8164 28.4355 11.6895 28.4551 11.582 28.3867C11.4551 28.3281 11.3965 28.2207 11.4355 28.1328C11.4746 28.0742 11.582 28.0449 11.709 28.0937C11.8359 28.1621 11.8945 28.2695 11.8555 28.3477Z" fill="#248AD3"/>
</svg>
