<svg width="50" height="50" viewBox="0 0 50 50" fill="none" xmlns="http://www.w3.org/2000/svg">
<path d="M25 34.6166L21.1646 22.8124H28.8354L25 34.6166ZM25 34.6166L15.7875 22.8124H21.1625L25 34.6166ZM15.7875 22.8124L25 34.6166L14.9104 27.2874C14.7745 27.1886 14.6734 27.0493 14.6218 26.8894C14.5701 26.7296 14.5705 26.5574 14.6229 26.3978L15.7896 22.8103L15.7875 22.8124ZM15.7875 22.8124L18.1 15.702C18.1255 15.622 18.1758 15.5522 18.2436 15.5027C18.3114 15.4532 18.3931 15.4265 18.4771 15.4265C18.561 15.4265 18.6428 15.4532 18.7105 15.5027C18.7783 15.5522 18.8286 15.622 18.8541 15.702L21.1646 22.8124H15.7896H15.7875ZM25 34.6166L28.8354 22.8103H34.2104L25 34.6166ZM34.2125 22.8103L35.3791 26.3978C35.4311 26.5579 35.4308 26.7303 35.3784 26.8902C35.326 27.0501 35.2241 27.1892 35.0875 27.2874L25 34.6166L34.2125 22.8103ZM34.2125 22.8103H28.8375L31.1458 15.6999C31.1708 15.6192 31.221 15.5485 31.289 15.4984C31.3571 15.4482 31.4394 15.4211 31.5239 15.4211C31.6085 15.4211 31.6908 15.4482 31.7588 15.4984C31.8269 15.5485 31.8771 15.6192 31.9021 15.6999L34.2125 22.8103Z" fill="#248AD3"/>
<path d="M12.5 8.33342C11.395 8.33342 10.3351 8.7724 9.55374 9.5538C8.77234 10.3352 8.33335 11.395 8.33335 12.5001V37.5001C8.33335 38.6052 8.77234 39.665 9.55374 40.4464C10.3351 41.2278 11.395 41.6668 12.5 41.6668H37.5C38.6051 41.6668 39.6649 41.2278 40.4463 40.4464C41.2277 39.665 41.6667 38.6052 41.6667 37.5001V12.5001C41.6667 11.395 41.2277 10.3352 40.4463 9.5538C39.6649 8.7724 38.6051 8.33342 37.5 8.33342H12.5ZM12.5 4.16675H37.5C39.7102 4.16675 41.8298 5.04472 43.3926 6.60753C44.9554 8.17033 45.8334 10.2899 45.8334 12.5001V37.5001C45.8334 39.7102 44.9554 41.8298 43.3926 43.3926C41.8298 44.9554 39.7102 45.8334 37.5 45.8334H12.5C10.2899 45.8334 8.17027 44.9554 6.60746 43.3926C5.04466 41.8298 4.16669 39.7102 4.16669 37.5001V12.5001C4.16669 10.2899 5.04466 8.17033 6.60746 6.60753C8.17027 5.04472 10.2899 4.16675 12.5 4.16675Z" fill="#248AD3"/>
</svg>
