<svg width="41" height="41" viewBox="0 0 41 41" fill="none" xmlns="http://www.w3.org/2000/svg">
<path d="M33.8333 7.45044H10.5C8.66167 7.45044 7.16667 8.91363 7.16667 10.7129V18.8689H10.5V13.9753L21.1667 21.8051C21.4553 22.0166 21.8061 22.1309 22.1667 22.1309C22.5272 22.1309 22.8781 22.0166 23.1667 21.8051L33.8333 13.9753V28.6561H20.5V31.9185H33.8333C35.6717 31.9185 37.1667 30.4553 37.1667 28.6561V10.7129C37.1667 8.91363 35.6717 7.45044 33.8333 7.45044ZM22.1667 18.4611L11.61 10.7129H32.7233L22.1667 18.4611Z" fill="white"/>
<path d="M3.83333 20.5H15.5V23.7624H3.83333V20.5ZM7.16666 25.3936H17.1667V28.656H7.16666V25.3936ZM12.1667 30.2872H18.8333V33.5496H12.1667V30.2872Z" fill="white"/>
</svg>
