<svg width="40" height="40" viewBox="0 0 40 40" fill="none" xmlns="http://www.w3.org/2000/svg">
<path d="M37.9688 0.46875H2.03125C1.16699 0.46875 0.46875 1.16699 0.46875 2.03125V37.9688C0.46875 38.833 1.16699 39.5312 2.03125 39.5312H37.9688C38.833 39.5312 39.5312 38.833 39.5312 37.9688V2.03125C39.5312 1.16699 38.833 0.46875 37.9688 0.46875ZM30.5127 14.6143C30.5273 14.8438 30.5273 15.083 30.5273 15.3174C30.5273 22.4854 25.0684 30.7422 15.0928 30.7422C12.0166 30.7422 9.16504 29.8486 6.76269 28.3105C7.20215 28.3594 7.62207 28.3789 8.07129 28.3789C10.6104 28.3789 12.9443 27.5195 14.8047 26.0645C12.4219 26.0156 10.4199 24.4531 9.73633 22.3047C10.5713 22.4268 11.3232 22.4268 12.1826 22.207C10.9557 21.9578 9.85291 21.2914 9.0616 20.3212C8.2703 19.351 7.83929 18.1368 7.8418 16.8848V16.8164C8.55957 17.2217 9.4043 17.4707 10.2881 17.5049C9.54513 17.0097 8.93583 16.3389 8.51421 15.5519C8.0926 14.7649 7.8717 13.886 7.87109 12.9932C7.87109 11.9824 8.13477 11.0596 8.6084 10.2588C9.97023 11.9352 11.6696 13.3064 13.596 14.283C15.5225 15.2597 17.6329 15.8201 19.79 15.9277C19.0234 12.2412 21.7773 9.25781 25.0879 9.25781C26.6504 9.25781 28.0566 9.91211 29.0479 10.9668C30.2734 10.7373 31.4453 10.2783 32.4902 9.66308C32.085 10.918 31.2354 11.9775 30.1074 12.6465C31.2012 12.5293 32.2559 12.2266 33.2324 11.8018C32.4951 12.8857 31.5723 13.8477 30.5127 14.6143Z" fill="#248AD3"/>
</svg>
